<svg xmlns="http://www.w3.org/2000/svg" width="20.429" height="21.961" viewBox="0 0 20.429 21.961">
  <defs>
    <style>
      .cls-1 {
        fill: #2c5ccb;
      }
    </style>
  </defs>
  <path id="mima-2" class="cls-1" d="M102.157,10.716a1.821,1.821,0,0,1,1.8,1.839v7.729a1.821,1.821,0,0,1-1.8,1.839H88.938a1.821,1.821,0,0,1-1.8-1.839V12.555a1.821,1.821,0,0,1,1.8-1.839Zm0-1.839H88.938a3.642,3.642,0,0,0-3.6,3.677v7.729a3.642,3.642,0,0,0,3.6,3.677h13.219a3.642,3.642,0,0,0,3.6-3.677V12.555A3.642,3.642,0,0,0,102.157,8.878ZM95.548,3.839a4.248,4.248,0,0,1,4.206,4.29v.749H91.342V8.129A4.248,4.248,0,0,1,95.548,3.839Zm0-1.839a6.07,6.07,0,0,0-6.009,6.129v2.588h12.017V8.129A6.07,6.07,0,0,0,95.548,2Zm0,17.6a.91.91,0,0,1-.9-.919V15.006a.9.9,0,1,1,1.8,0v3.677A.91.91,0,0,1,95.548,19.6Z" transform="translate(-85.333 -2)"/>
</svg>
