<svg xmlns="http://www.w3.org/2000/svg" width="20.429" height="22.57" viewBox="0 0 20.429 22.57">
  <defs>
    <style>
      .cls-1 {
        fill: #2c5ccb;
      }

      .cls-2 {
        fill: #80b5ff;
      }
    </style>
  </defs>
  <g id="anquandunyanzhengma" transform="translate(-99 -36.06)">
    <path id="路径_925" data-name="路径 925" class="cls-1" d="M100.484,47.882a7,7,0,0,0,4.214,6.424l4.052,1.759a.989.989,0,0,0,.834-.022l4.077-2.026a7.717,7.717,0,0,0,4.284-6.911V39.036q-1.949-.169-3.831-.435a12.02,12.02,0,0,1-4.886-1.954,11.759,11.759,0,0,1-4.913,1.954q-1.948.275-3.831.438Zm-.8-10.267q2.164-.164,4.421-.483a10.431,10.431,0,0,0,4.548-1.891.989.989,0,0,1,1.127-.007,10.776,10.776,0,0,0,4.539,1.9q2.164.306,4.423.481a.742.742,0,0,1,.685.74v8.754a9.2,9.2,0,0,1-5.107,8.24l-4.077,2.026a2.473,2.473,0,0,1-2.085.054l-4.052-1.759A8.487,8.487,0,0,1,99,47.882V38.354A.742.742,0,0,1,99.686,37.614Z" transform="translate(0 1)"/>
    <path id="路径_926" data-name="路径 926" class="cls-2" d="M289.074,351.723l6.2-5.487a1,1,0,0,1,1.289,0,.745.745,0,0,1,0,1.143l-6.844,6.06a1,1,0,0,1-1.292,0l-3.159-2.828a.745.745,0,0,1,.007-1.143,1,1,0,0,1,1.289.006l2.515,2.251Z" transform="translate(-181.699 -302.493)"/>
  </g>
</svg>
