<svg xmlns="http://www.w3.org/2000/svg" width="20.429" height="22" viewBox="0 0 20.429 22">
  <defs>
    <style>
      .cls-1 {
        fill: #2c5ccb;
      }

      .cls-2 {
        fill: #80b5ff;
      }
    </style>
  </defs>
  <g id="zhanghao" transform="translate(-96 -64)">
    <path id="路径_922" data-name="路径 922" class="cls-1" d="M293.524,74.944A5.472,5.472,0,1,0,288,69.472,5.5,5.5,0,0,0,293.524,74.944Zm0-1.563a3.909,3.909,0,1,1,3.946-3.909A3.927,3.927,0,0,1,293.524,73.38Z" transform="translate(-187.31)"/>
    <path id="路径_923" data-name="路径 923" class="cls-2" d="M448,320h3.127A1.563,1.563,0,1,1,448,320Z" transform="translate(-343.349 -249.712)"/>
    <path id="路径_924" data-name="路径 924" class="cls-1" d="M101.107,576h10.214a4.707,4.707,0,1,1,0,9.38H101.107a4.707,4.707,0,1,1,0-9.38Zm-.079,1.563a3.143,3.143,0,1,0,0,6.254H111.4a3.143,3.143,0,1,0,0-6.254Z" transform="translate(0 -499.38)"/>
  </g>
</svg>
